<svg width="300" height="304" viewBox="0 0 300 304" fill="none" xmlns="http://www.w3.org/2000/svg">
<path d="M188.346 77.0816C188.346 74.2496 187.91 71.9242 187.037 70.1134C187.037 68.9628 187.847 66.5386 189.478 62.8362C189.833 62.0116 190.222 62.0296 190.626 62.8694C191.096 63.8718 192.176 66.6185 193.86 71.1131C195.653 75.8044 196.689 78.6813 196.98 79.7655C197.208 80.59 197.334 81.2044 197.334 81.6077C197.334 82.902 196.093 82.1233 193.601 79.2778C193.31 78.8745 193.166 79.0532 193.166 79.8113C193.166 80.0709 193.941 90.9508 195.524 112.438C197.109 133.941 197.902 145.794 197.902 148.008C197.902 154.797 196.85 160.797 194.748 166.004C194.313 167.053 193.956 167.814 193.699 168.281C193.278 168.944 193.036 169.024 192.955 168.54C192.826 168.038 192.875 166.941 193.085 165.242C193.341 162.899 193.472 160.182 193.472 157.077C193.472 154.313 192.615 140.893 190.899 116.82C189.187 92.7616 188.346 79.5059 188.346 77.0816Z" fill="#D3FFE3"/>
<path d="M166.384 142.055C169.18 142.055 171.896 140.971 174.533 138.805C175.294 138.16 175.682 135.83 175.682 131.788C175.682 129.332 175.052 119.47 173.787 102.186C172.528 84.9037 171.914 74.7181 171.914 71.6117C171.914 68.7986 171.463 66.5027 170.588 64.6747C170.588 63.6896 171.394 61.2644 173.043 57.4014C173.222 56.9315 173.384 56.703 173.563 56.703C173.742 56.703 173.949 56.9638 174.177 57.4833C174.647 58.4836 175.729 61.2342 177.426 65.7289C179.174 70.4153 180.241 73.2781 180.579 74.3279C180.756 75.2182 180.855 75.8326 180.855 76.1689C180.855 77.4644 179.627 76.7078 177.167 73.8924C176.878 73.4893 176.732 73.6639 176.732 74.427C176.732 74.6017 177.283 82.2824 178.398 97.4951C179.497 112.695 180.062 121.764 180.062 124.689C180.062 133.163 178.542 139.841 175.505 144.69C172.929 148.762 169.904 150.814 166.434 150.833V150.874C165.22 151.049 164.009 151.055 162.797 150.874V150.833C158.682 150.827 154.664 149.165 150.725 145.836C147.069 142.409 143.4 138.999 139.716 135.571C139.246 135.168 138.955 134.957 138.841 134.957C138.694 134.957 138.807 135.394 139.197 136.265C140.54 139.369 141.199 141.583 141.199 142.896C141.199 147.843 139.779 151.577 136.916 154.116C134.864 155.959 130.24 158.415 123.012 161.456V161.454C118.578 163.351 115.253 164.839 113.059 165.878C108.679 167.917 105.654 169.583 104.02 170.875C101.013 173.218 96.6499 177.7 90.9093 184.296C87.4996 188.239 84.0542 190.228 80.6122 190.228C77.7173 190.228 75.1943 188.92 73.0261 186.316C70.7491 183.6 69.6156 180.284 69.6156 176.354C69.6156 170.954 71.8297 163.908 76.2784 155.227C76.7455 154.321 77.103 153.868 77.3599 153.868C77.4893 153.901 77.5386 154.013 77.5386 154.205C77.5386 155.097 76.5839 158.119 74.6438 163.31C72.7207 168.499 71.7668 172.604 71.7668 175.611C71.7668 177.924 72.3003 179.769 73.3844 181.14C74.5144 182.627 76.1176 183.391 78.1521 183.391C81.7593 183.391 85.3978 181.547 89.0815 177.891C91.4113 175.113 93.7548 172.347 96.0812 169.566C99.1225 166.139 103.117 163.082 108.062 160.398C110.942 158.824 115.928 156.544 123.012 153.56V153.547C130.643 150.318 135.657 147.809 138.05 146.048C138.744 145.532 138.985 144.836 138.744 143.946C137.466 139.272 132.197 133.047 122.93 125.273C114.072 118.125 105.212 110.996 96.3533 103.867C96.0444 103.606 95.8827 102.639 95.8827 100.972C95.8827 98.8079 96.1108 96.5767 96.5788 94.2637C97.0789 91.692 97.6932 90.0601 98.4219 89.3983C103.419 84.8843 114.087 78.9023 130.417 71.4501C146.957 63.8814 157.887 60.1004 163.174 60.1004C164.742 60.1004 165.824 60.4086 166.406 61.0359C167.005 61.6675 167.296 62.7346 167.296 64.2544C167.296 67.7315 165.209 72.0644 161.073 77.2402C159.518 79.0014 157.951 80.7626 156.382 82.5411C153.894 85.4361 152.211 87.7966 151.34 89.6074C150.758 90.8361 150.385 91.4505 150.238 91.4505C150.094 91.4505 150.176 90.6249 150.499 88.993C150.676 88.0877 151.37 86.5205 152.568 84.3023C153.653 82.2501 154.459 80.9243 155.009 80.3099C159.697 74.9897 162.493 71.4824 163.431 69.8161C163.53 69.6544 163.56 69.4798 163.56 69.3008C163.56 68.2963 162.252 67.8113 159.618 67.8113C155.446 67.8113 145.55 71.4501 129.934 78.7277C114.331 86.001 103.643 91.983 97.8894 96.6694C97.5165 96.9971 97.5639 97.2709 98.0662 97.4951C103.173 100.632 108.204 103.867 113.152 107.196C125.051 115.267 135.575 123.221 144.758 131.061C147.539 133.486 150.305 135.929 153.084 138.384C156.362 140.824 159.596 142.057 162.761 142.055V142.038C164.004 142.26 165.212 142.264 166.384 142.055Z" fill="#D3FFE3"/>
<path d="M101.155 138.462C99.6046 133.66 98.5204 128.81 97.9061 123.895C97.7938 123.039 97.713 122.519 97.6465 122.309C97.4713 121.663 97.0995 120.969 96.5166 120.207L98.489 115.422C98.7971 114.628 99.089 114.243 99.3136 114.243C99.5237 114.243 99.8641 114.628 100.365 115.422L105.408 123.492C106.089 124.572 106.411 125.365 106.411 125.867C106.411 126.222 106.249 126.4 105.896 126.4C105.278 126.4 104.18 125.885 102.597 124.863C103.05 127.951 104.068 131.88 105.667 136.617C105.667 136.94 105.152 137.361 104.116 137.895C103.082 138.414 102.271 138.687 101.674 138.687C101.383 138.687 101.222 138.607 101.155 138.462Z" fill="#D3FFE3"/>
<path d="M115.416 141.613C116.55 141.613 117.132 141.304 117.132 140.69C117.132 139.785 116.322 138.992 114.708 138.314C113.511 137.827 111.571 137.812 108.886 138.279C110.307 140.497 112.49 141.613 115.416 141.613ZM63.6817 164.811C60.7876 164.811 58.2646 163.503 56.0999 160.9C53.8194 158.183 52.6858 154.868 52.6858 150.939C52.6858 145.539 54.9035 138.489 59.3487 129.809C59.8158 128.904 60.1733 128.452 60.4293 128.452C60.5595 128.466 60.608 128.596 60.608 128.792C60.608 129.68 59.6541 132.704 57.714 137.893C55.7909 143.083 54.837 147.188 54.837 150.198C54.837 152.475 55.3697 154.32 56.4538 155.724C57.6188 157.212 59.2194 157.973 61.2224 157.973C64.5376 157.973 67.6427 156.889 70.5691 154.724C74.1583 151.619 77.7619 148.514 81.3511 145.426C87.8352 139.928 94.3014 135.725 100.736 132.834L104.809 130.989C108.255 129.792 111.213 129.196 113.672 129.196C116.146 129.196 118.118 130.23 119.556 132.332C121.012 134.416 121.739 137.181 121.739 140.591C121.739 143.437 121.124 145.784 119.897 147.626C118.665 149.468 117.034 150.391 115.03 150.391C112.248 150.391 109.564 149.033 106.961 146.349C105.021 144.328 103.582 142.16 102.613 139.848C97.8592 141.742 92.3927 145.121 86.267 149.97C81.7544 153.657 77.2778 157.342 72.8011 161.029C69.4679 163.552 66.4293 164.811 63.6817 164.811Z" fill="#D3FFE3"/>
<path d="M96.6443 157.186V162.295C96.6443 162.699 96.5455 162.927 96.3668 163.025C96.1108 163.151 94.6368 163.025 91.988 162.636C89.3186 162.232 87.9291 161.923 87.8168 161.681C87.3776 160.794 87.3461 158.495 87.7359 154.812C87.7674 154.359 87.9461 154.162 88.2695 154.212C90.6299 154.65 93.2482 155.053 96.1108 155.408C96.0443 153.387 96.0793 151.626 96.2231 150.12C96.2545 149.653 96.4332 149.461 96.7566 149.524C99.4584 150.057 102.174 150.478 104.921 150.77C105.069 150.783 105.149 150.945 105.149 151.236V157.625C105.149 158.029 105.051 158.27 104.872 158.351C104.629 158.464 103.401 158.369 101.17 158.06C98.9383 157.751 97.4195 157.46 96.6443 157.186Z" fill="#D3FFE3"/>
<path d="M118.967 199.19C118.967 200.677 118.353 202.376 117.126 204.284C115.865 206.274 114.248 207.968 112.258 209.375C111.466 209.926 110.999 210.217 110.852 210.217C110.82 210.217 110.82 210.2 110.82 210.168C110.82 210.056 111.143 209.617 111.823 208.891C115.09 205.319 116.739 202.941 116.739 201.73C116.739 200.596 116.202 200.031 115.153 200.031C114.571 200.031 114.038 200.193 113.567 200.515C113.23 200.744 113.003 200.87 112.922 200.905C112.858 200.839 112.792 200.807 112.697 200.775C112.729 200.663 112.792 200.355 112.873 199.853C113.406 197.397 114.62 196.169 116.561 196.169C118.16 196.169 118.967 197.169 118.967 199.19Z" fill="#D3FFE3"/>
<path d="M145.614 81.2259C145.614 82.7133 145 84.4118 143.772 86.3205C142.512 88.31 140.895 90.0041 138.905 91.4115C138.113 91.9621 137.646 92.2532 137.498 92.2532C137.467 92.2532 137.467 92.2361 137.467 92.2047C137.467 92.0924 137.789 91.6532 138.47 90.9274C141.737 87.3553 143.386 84.9768 143.386 83.766C143.386 82.6325 142.849 82.0675 141.8 82.0675C141.218 82.0675 140.684 82.2292 140.214 82.5517C139.877 82.7798 139.65 82.9065 139.569 82.9415C139.505 82.875 139.439 82.8436 139.344 82.8113C139.376 82.699 139.439 82.3909 139.519 81.8888C140.053 79.4331 141.266 78.2053 143.207 78.2053C144.807 78.2053 145.614 79.205 145.614 81.2259Z" fill="#D3FFE3"/>
<path d="M141.844 228.268C141.239 226.909 141.108 225.108 141.452 222.865C141.794 220.535 142.581 218.329 143.826 216.234C144.325 215.408 144.633 214.952 144.768 214.892C144.797 214.879 144.804 214.895 144.816 214.924C144.862 215.026 144.746 215.559 144.42 216.499C142.89 221.091 142.352 223.935 142.845 225.041C143.306 226.076 144.027 226.374 144.985 225.947C145.517 225.71 145.938 225.345 146.237 224.859C146.452 224.513 146.608 224.305 146.667 224.24C146.753 224.275 146.826 224.277 146.926 224.268C146.943 224.383 147.011 224.69 147.141 225.182C147.653 227.642 147.045 229.257 145.272 230.047C143.811 230.699 142.667 230.114 141.844 228.268Z" fill="#D3FFE3"/>
<path d="M165.673 88.7101C165.673 90.1975 165.06 91.896 163.832 93.8047C162.572 95.7942 160.954 97.4882 158.965 98.8957C158.173 99.4463 157.706 99.7373 157.558 99.7373C157.527 99.7373 157.527 99.7203 157.527 99.6888C157.527 99.5766 157.849 99.1373 158.53 98.4116C161.797 94.8394 163.446 92.461 163.446 91.2502C163.446 90.1167 162.909 89.5517 161.86 89.5517C161.278 89.5517 160.744 89.7134 160.273 90.0359C159.937 90.264 159.709 90.3906 159.629 90.4257C159.565 90.3592 159.498 90.3278 159.404 90.2954C159.435 90.1832 159.498 89.8751 159.579 89.373C160.113 86.9173 161.326 85.6894 163.267 85.6894C164.867 85.6894 165.673 86.6891 165.673 88.7101Z" fill="#D3FFE3"/>
<path d="M59.5873 118.918C59.306 118.148 59.3025 117.152 59.5774 115.931C59.8537 114.663 60.371 113.48 61.1351 112.375C61.4412 111.94 61.628 111.701 61.7043 111.673C61.7206 111.667 61.7238 111.676 61.7298 111.692C61.751 111.75 61.6671 112.039 61.4518 112.543C60.4357 115.011 60.0315 116.554 60.2604 117.181C60.4748 117.768 60.8598 117.959 61.403 117.761C61.7044 117.651 61.9501 117.466 62.1328 117.21C62.2641 117.028 62.3578 116.92 62.3931 116.886C62.4387 116.909 62.479 116.912 62.534 116.911C62.5389 116.975 62.5646 117.147 62.6177 117.422C62.8058 118.795 62.4096 119.66 61.4045 120.027C60.5762 120.329 59.9695 119.964 59.5873 118.918Z" fill="#D3FFE3"/>
<path d="M73.0408 123.126C73.0408 124.273 72.5676 125.584 71.6176 127.056C70.6454 128.591 69.3975 129.898 67.8634 130.983C67.2544 131.408 66.8913 131.633 66.7776 131.633C66.7534 131.633 66.7534 131.619 66.7534 131.595C66.7534 131.509 67.0021 131.17 67.5274 130.61C70.0475 127.854 71.3196 126.019 71.3196 125.085C71.3196 124.211 70.9081 123.775 70.096 123.775C69.647 123.775 69.2354 123.9 68.8758 124.149C68.6131 124.325 68.4371 124.422 68.3748 124.449C68.3263 124.398 68.2743 124.374 68.2016 124.349C68.2258 124.263 68.2743 124.025 68.3367 123.637C68.751 121.743 69.6851 120.796 71.1818 120.796C72.4158 120.796 73.0408 121.567 73.0408 123.126Z" fill="#D3FFE3"/>
<path d="M97.576 214.954C98.0953 214.954 98.5727 214.731 99.041 214.282C99.571 213.774 99.8363 213.131 99.8363 212.358C99.8363 211.503 99.3566 211.086 98.4001 211.086C97.9827 211.086 97.6156 211.209 97.3 211.472C97.3 210.975 97.6467 210.199 98.3492 209.152C98.9703 208.173 99.6021 207.4 100.223 206.83C100.375 206.657 100.415 206.514 100.365 206.381C100.324 206.271 100.223 206.271 100.06 206.361C99.2441 206.85 98.3804 207.787 97.4635 209.152C96.4137 210.679 95.8944 211.991 95.8944 213.103C95.8944 214.333 96.4561 214.954 97.576 214.954Z" fill="#D3FFE3"/>
<path d="M89.403 81.7204C89.403 83.2078 88.7859 84.9027 87.5572 86.8114C86.2979 88.8009 84.6802 90.4985 82.6907 91.906C81.8985 92.453 81.4314 92.744 81.2841 92.744C81.2527 92.744 81.2527 92.7306 81.2527 92.6955C81.2527 92.5833 81.5751 92.1476 82.256 91.4183C85.5227 87.8461 87.1718 85.4713 87.1718 84.2569C87.1718 83.127 86.6383 82.5593 85.5856 82.5593C85.0036 82.5593 84.47 82.7201 84.003 83.047C83.6626 83.2716 83.4353 83.4009 83.3545 83.4324C83.2907 83.3695 83.2242 83.3345 83.1299 83.303C83.1614 83.1907 83.2242 82.8818 83.3051 82.3833C83.8386 79.924 85.0521 78.6961 86.9931 78.6961C88.5928 78.6961 89.403 79.6994 89.403 81.7204Z" fill="#D3FFE3"/>
<path d="M113.593 64.6297C113.279 65.2777 112.653 65.8858 111.715 66.458C110.746 67.059 109.684 67.4572 108.52 67.6506C108.06 67.7217 107.795 67.75 107.731 67.7189C107.717 67.7123 107.72 67.7064 107.727 67.6911C107.751 67.6422 107.983 67.5205 108.434 67.3464C110.61 66.4796 111.83 65.793 112.086 65.264C112.324 64.7718 112.212 64.4119 111.753 64.1898C111.499 64.0671 111.233 64.0245 110.961 64.0684C110.765 64.0944 110.639 64.1028 110.597 64.0995C110.582 64.0586 110.561 64.0293 110.526 63.9957C110.564 63.9535 110.656 63.8321 110.797 63.6321C111.548 62.6733 112.336 62.3945 113.181 62.804C113.878 63.1414 114.019 63.7494 113.593 64.6297Z" fill="#D3FFE3"/>
<path d="M127.93 58.8499C128.237 58.1986 128.857 57.5837 129.788 57.0014C130.75 56.39 131.809 55.9803 132.97 55.7744C133.43 55.6983 133.694 55.6672 133.759 55.6975C133.772 55.704 133.77 55.7099 133.762 55.7253C133.739 55.7744 133.508 55.8987 133.06 56.0776C130.893 56.9679 129.681 57.6677 129.43 58.1994C129.197 58.6941 129.314 59.0527 129.775 59.2699C130.03 59.3899 130.296 59.4295 130.568 59.3827C130.764 59.3546 130.89 59.3448 130.932 59.3477C130.947 59.3884 130.968 59.4175 131.003 59.4507C130.966 59.4934 130.875 59.6157 130.737 59.8173C129.996 60.7841 129.212 61.0714 128.362 60.6711C127.661 60.3412 127.513 59.7348 127.93 58.8499Z" fill="#D3FFE3"/>
<path d="M145.927 164.311C146.497 164.311 147.02 164.067 147.534 163.575C148.115 163.017 148.406 162.312 148.406 161.464C148.406 160.526 147.88 160.068 146.831 160.068C146.373 160.068 145.97 160.203 145.624 160.492C145.624 159.946 146.005 159.096 146.775 157.947C147.456 156.873 148.15 156.025 148.831 155.399C148.998 155.21 149.042 155.053 148.986 154.907C148.942 154.786 148.831 154.786 148.651 154.886C147.757 155.421 146.809 156.449 145.804 157.947C144.652 159.622 144.082 161.061 144.082 162.28C144.082 163.631 144.698 164.311 145.927 164.311Z" fill="#D3FFE3"/>
<path d="M80.9897 176.845C81.509 176.845 81.9864 176.62 82.4548 176.174C82.9854 175.663 83.2507 175.023 83.2507 174.249C83.2507 173.394 82.771 172.976 81.8139 172.976C81.3964 172.976 81.0298 173.098 80.7136 173.363C80.7136 172.863 81.0604 172.09 81.7635 171.041C82.3841 170.064 83.016 169.291 83.6371 168.72C83.7898 168.546 83.8294 168.404 83.7785 168.272C83.7389 168.159 83.6371 168.159 83.4736 168.252C82.6584 168.74 81.7941 169.677 80.8771 171.041C79.8278 172.568 79.3085 173.882 79.3085 174.992C79.3085 176.225 79.8696 176.845 80.9897 176.845Z" fill="#D3FFE3"/>
<path d="M174.628 181.128C174.683 181.004 174.751 180.914 174.807 180.847C174.872 180.815 174.896 180.825 174.896 180.881C174.918 180.936 174.918 181.039 174.896 181.184C174.359 184.153 173.467 185.639 172.238 185.639C170.919 185.639 170.272 184.545 170.272 182.366C170.272 179.676 171.043 176.86 172.594 173.912C172.987 173.185 173.209 172.807 173.299 172.795C173.309 172.795 173.321 172.807 173.321 172.817C173.321 172.963 173.209 173.377 172.987 174.068C171.981 177.141 171.479 179.283 171.479 180.512C171.479 182.187 171.925 183.038 172.841 183.038C173.365 183.038 173.956 182.4 174.628 181.128Z" fill="#D3FFE3"/>
<path d="M64.8803 182.003C64.9612 181.793 65.06 181.662 65.1399 181.599C65.2037 181.55 65.2522 181.568 65.2702 181.649C65.3016 181.73 65.3016 181.873 65.2702 182.084C65.0735 183.751 64.5893 185.238 63.8456 186.564C63.1019 187.873 62.2944 188.536 61.4214 188.536C60.4495 188.55 59.7229 188.066 59.2217 187.031C58.7375 186.013 58.5094 184.638 58.5758 182.908C58.6567 180.806 59.3016 178.108 60.498 174.81C61.5193 171.997 62.4247 170.024 63.2142 168.892C63.7154 168.211 64.0073 167.856 64.0881 167.843C64.1196 167.955 63.9929 168.34 63.7019 169.021C61.9369 172.934 60.8384 176.554 60.4037 179.852C60.3372 180.224 60.3229 180.613 60.3229 180.985C60.3229 183.62 60.9687 184.88 62.2944 184.767C63.0875 184.67 63.9435 183.751 64.8803 182.003Z" fill="#D3FFE3"/>
<path d="M68.1419 99.4599C69.2927 99.4599 70.4543 100.574 71.6178 102.802C72.6718 104.846 73.3968 107.124 73.8199 109.641C73.8562 109.883 73.8804 110.017 73.8804 110.064C73.9302 110.125 73.9537 110.125 73.9773 110.064C74.0008 110.017 74.0614 109.883 74.1481 109.641C74.4501 107.473 75.044 104.617 75.9164 101.057C76.749 99.0712 77.6584 98.0784 78.6383 98.0784C79.1482 98.0784 79.6445 98.4201 80.1517 99.0974C80.5875 99.6886 80.8054 100.161 80.8054 100.537C80.8054 100.829 80.7321 101.192 80.5774 101.651C80.383 102.269 80.1517 102.571 79.886 102.571C79.7757 102.571 79.5342 102.343 79.1717 101.869C78.7957 101.396 78.4097 101.168 78.0209 101.168C77.2118 101.168 76.2897 104 75.2619 109.664C74.9337 111.47 74.5712 112.742 74.1717 113.479C73.8932 113.987 73.6518 114.241 73.4574 114.241C73.2758 114.241 73.1917 114.013 73.1917 113.553C73.1917 112.801 72.7189 111.02 71.786 108.225C70.8195 105.332 70.1758 103.89 69.8496 103.89C69.6081 103.89 69.4508 103.964 69.3902 104.121C69.3162 104.266 69.1219 104.35 68.7963 104.35C68.4203 104.35 67.9374 104.071 67.3301 103.527C66.7261 102.984 66.4342 102.534 66.4342 102.208C66.4342 102.064 66.679 101.567 67.1855 100.719C67.6953 99.8702 68.008 99.4599 68.1419 99.4599Z" fill="#D3FFE3"/>
<path d="M221.944 105.986C221.944 103.123 221.491 100.811 220.617 99.0634C220.617 97.8849 221.425 95.4427 223.074 91.7412C223.414 90.9166 223.803 90.9337 224.206 91.7726C224.677 92.7759 225.757 95.5235 227.456 100.018C229.234 104.709 230.287 107.6 230.575 108.715C230.803 109.495 230.933 110.109 230.933 110.512C230.933 111.853 229.669 111.077 227.182 108.183C226.891 107.828 226.744 108.021 226.744 108.75C226.744 109.024 227.666 121.782 229.494 147.019C231.318 172.27 232.242 186.014 232.242 188.228C232.242 195.101 231.193 201.097 229.122 206.209C228.684 207.276 228.329 208.034 228.055 208.504C227.648 209.167 227.407 209.248 227.311 208.764C227.196 208.261 227.245 207.16 227.456 205.465C227.716 203.118 227.859 200.389 227.859 197.266C227.859 194.519 226.873 179.224 224.901 151.415C222.929 123.592 221.944 108.442 221.944 105.986Z" fill="#D3FFE3"/>
<path d="M153.131 127.899C153.131 125.071 152.697 122.742 151.823 120.931C151.823 119.784 152.63 117.359 154.265 113.654C154.62 112.829 155.008 112.847 155.413 113.689C155.882 114.69 156.963 117.44 158.644 121.934C160.44 126.622 161.476 129.499 161.767 130.583C161.991 131.408 162.12 132.022 162.12 132.425C162.12 133.72 160.876 132.945 158.388 130.099C158.097 129.692 157.949 129.871 157.949 130.633C157.949 130.889 158.728 141.772 160.311 163.259C161.896 184.759 162.685 196.612 162.685 198.826C162.685 205.618 161.636 211.615 159.535 216.821C159.096 217.874 158.742 218.631 158.482 219.102C158.065 219.765 157.819 219.846 157.738 219.358C157.612 218.859 157.658 217.758 157.868 216.06C158.128 213.716 158.257 211 158.257 207.895C158.257 205.13 157.401 191.714 155.686 167.638C153.974 143.583 153.131 130.324 153.131 127.899Z" fill="#D3FFE3"/>
<path d="M145.434 193.985C145.434 199.416 144.206 203.539 141.747 206.353C137.884 210.848 132.211 215.212 124.74 219.416C115.263 224.685 106.436 227.32 98.2576 227.32C87.2617 227.32 79.6971 221.938 75.5429 211.17C74.7318 209.068 74.3285 206.384 74.3285 203.103C74.3285 200.935 74.4902 198.753 74.8441 196.521C75.3776 193.255 76.1078 190.378 77.0447 187.922C77.3357 187.178 77.6267 186.788 77.9177 186.788C78.2096 186.788 78.2725 187.29 78.0974 188.277C77.739 189.795 77.3851 191.314 77.0447 192.834C76.4617 195.536 76.1707 197.525 76.1707 198.802C76.1707 203.248 77.6581 207.338 80.6339 211.072C84.6758 216.054 90.5141 218.542 98.1767 218.542C104.885 218.542 112.014 216.959 119.566 213.805C125.646 211.282 131.108 208.131 135.961 204.332C140.339 200.935 142.54 198.511 142.54 197.055C142.54 196.813 141.635 194.922 139.824 191.35C137.655 187.143 136.041 183.038 134.989 179.059C134.585 177.719 134.101 176.814 133.551 176.344C133 175.877 132.726 175.389 132.726 174.856C132.726 174.452 133.129 172.288 133.94 168.375C134.066 167.663 134.245 167.323 134.473 167.323C134.716 167.323 135.007 167.484 135.347 167.839C136.459 169.07 138.852 171.495 142.54 175.115C143.122 175.715 143.413 176.182 143.413 176.523C143.413 176.943 143.073 177.136 142.36 177.136C141.603 177.136 140.47 176.912 138.951 176.442C139.063 176.912 140.294 179.481 142.621 184.154C144.497 187.953 145.434 191.234 145.434 193.985Z" fill="#D3FFE3"/>
<path d="M114.233 183.315C114.103 183.235 114.103 183.056 114.233 182.796L117.029 177.042C117.208 176.684 117.401 176.523 117.598 176.523C117.889 176.523 119.148 177.284 121.38 178.804C123.594 180.323 124.71 181.214 124.71 181.47C124.71 182.474 123.723 184.543 121.769 187.712C121.527 188.115 121.281 188.213 121.025 188.02C118.826 186.336 116.563 184.786 114.233 183.315Z" fill="#D3FFE3"/>
<path d="M191.952 177.01L194.184 172.4C194.363 172.046 194.556 171.884 194.766 171.884C195.057 171.884 196.303 172.642 198.53 174.165C200.748 175.684 201.864 176.572 201.864 176.831C201.864 177.834 200.878 179.901 198.92 183.056C198.692 183.446 198.436 183.54 198.177 183.361C196.254 181.94 194.072 180.435 191.643 178.852C190.819 180.694 190.03 182.263 189.237 183.558C189.009 183.961 188.753 184.059 188.493 183.862C186.292 182.182 184.03 180.631 181.7 179.158C181.573 179.077 181.573 178.902 181.7 178.642L184.5 172.884C184.676 172.53 184.872 172.369 185.065 172.351C185.339 172.369 186.405 172.982 188.265 174.245C190.142 175.505 191.37 176.428 191.952 177.01Z" fill="#D3FFE3"/>
<path d="M185.231 152.941C185.481 152.164 185.527 151.369 185.399 150.575C185.231 149.693 184.831 149.276 184.205 149.276C183.914 149.276 183.497 149.425 182.992 149.693C182.47 149.989 182.198 150.261 182.198 150.534C182.198 151.161 183.223 151.978 185.231 152.941ZM183.683 156.474C181.148 155.157 179.872 153.777 179.872 152.332C179.872 150.597 180.69 149.003 182.279 147.559C183.892 146.115 185.231 145.574 186.299 145.969C187.198 146.282 187.638 147.246 187.638 148.858C187.638 150.302 187.343 151.933 186.739 153.736C188.015 154.466 188.833 155.094 189.146 155.598C189.146 156.288 188.579 157.437 187.43 159.072C187.116 158.568 186.339 157.942 185.105 157.187C183.683 159.154 181.884 160.957 179.709 162.565C177.238 164.387 174.953 165.767 172.882 166.689C172.464 166.898 170.057 167.82 165.706 169.433C165.015 169.682 164.575 169.809 164.343 169.809C164.239 169.809 164.198 169.769 164.198 169.723C164.198 169.555 164.575 169.223 165.329 168.742C168.549 166.834 171.774 164.909 175.017 162.965C178.891 160.621 181.779 158.464 183.683 156.474Z" fill="#D3FFE3"/>
<path d="M180.198 194.801C180.198 196.752 179.533 198.618 178.2 200.379C176.781 202.302 175.103 203.262 173.208 203.262C171.233 203.262 170.243 202.302 170.243 200.379C170.243 198.994 171.02 196.962 172.566 194.321C174.141 191.651 175.478 190.348 176.596 190.348C177.558 190.348 178.415 190.77 179.132 191.599C179.828 192.456 180.198 193.522 180.198 194.801ZM178.49 196.991C178.49 195.2 177.239 194.297 174.784 194.297C174.436 194.297 173.852 194.853 173.023 195.977C172.196 197.123 171.795 197.9 171.795 198.351C172.084 198.994 172.995 199.313 174.569 199.313C177.187 199.313 178.49 198.536 178.49 196.991Z" fill="#D3FFE3"/>
<path d="M167.214 102.514C168.393 102.514 168.993 103.083 168.993 104.244C168.993 104.861 168.832 105.507 168.505 106.17C168.294 106.623 167.762 107.35 166.905 108.384C165.677 109.792 164.87 110.777 164.449 111.36C163.755 112.282 163.347 112.749 163.235 112.749C163.221 112.749 163.203 112.717 163.203 112.686C163.203 112.573 163.316 112.264 163.527 111.732C163.996 110.567 164.74 109.402 165.807 108.191C166.404 107.528 167.035 106.847 167.667 106.17C167.425 105.588 167.052 105.297 166.52 105.297C166.148 105.297 165.677 105.426 165.144 105.7C159.793 108.416 154.635 109.792 149.671 109.792C146.938 109.792 144.464 109.195 142.25 108.012C142.573 109.047 142.461 110.276 141.91 111.732C141.699 112.297 141.556 112.605 141.457 112.619C141.408 112.619 141.377 112.264 141.377 111.57C141.377 110.276 141.166 109.159 140.763 108.223C140.713 108.11 140.036 107.09 138.759 105.198C138.97 103.89 139.292 103.245 139.728 103.245C139.776 103.245 140.1 103.469 140.713 103.939C141.443 104.535 142.187 105.023 142.945 105.426C145.194 106.606 147.667 107.206 150.334 107.206C153.148 107.206 155.863 106.802 158.482 105.991C160.017 105.507 161.846 104.746 163.961 103.711C165.629 102.904 166.713 102.514 167.214 102.514Z" fill="#D3FFE3"/>
<path d="M106.44 191.364C106.44 191.914 105.746 193.142 104.37 195.083C102.802 197.252 101.318 198.851 99.9112 199.855C99.0058 200.482 96.013 201.486 90.9219 202.83C90.0165 203.055 89.5603 203.135 89.5603 203.086C89.6267 202.991 89.9321 202.732 90.5007 202.293C91.1636 201.778 92.9743 200.76 95.9321 199.192C98.7776 197.686 100.444 196.718 100.928 196.297C101.009 196.199 101.058 196.118 101.058 196.037C101.058 195.36 98.518 195.034 93.4755 195.034C93.4585 195.034 92.4902 195.069 90.5636 195.15C89.6447 195.198 89.192 195.132 89.192 194.971C89.192 194.841 89.3043 194.581 89.5288 194.178L91.3252 191.139C91.8588 190.248 92.8127 189.7 94.2022 189.459C94.7043 189.378 95.8693 189.343 97.7106 189.343C103.532 189.343 106.44 190.006 106.44 191.364Z" fill="#D3FFE3"/>
<path d="M99.0168 74.1989C116.445 67.6519 134.212 60.9576 152.351 54.1366C152.692 54.0208 152.888 53.975 152.951 54.0208C153.032 54.0872 153.015 54.2633 152.888 54.5543C152.516 55.4606 152.207 56.0103 151.979 56.2205C135.314 62.463 117.301 69.4133 97.9506 77.0759C98.1572 76.1884 98.5156 75.2336 99.0168 74.1989Z" fill="#D3FFE3"/>
<path d="M132.939 90.5059C133.539 90.8427 133.83 91.2496 133.83 91.7023C133.83 92.0247 133.683 92.3301 133.392 92.6211C132.553 93.4637 132.034 93.8355 131.824 93.7232C131.841 93.4322 131.55 92.9615 130.968 92.2987C130.564 92.0741 129.48 92.0077 127.718 92.1199C125.842 92.2178 124.322 92.4918 123.175 92.9445C122.785 93.0918 122.61 93.2526 122.592 93.4457C122.61 93.7861 123.225 94.3053 124.469 95.014C125.406 95.5655 126.634 96.116 128.122 96.6496C129.627 97.1822 130.532 97.555 130.869 97.7301C132.715 98.8142 133.571 100.042 133.427 101.435C133.343 102.273 132.809 103.116 131.824 103.957C130.936 104.715 130.322 105.056 129.982 104.975C124.613 103.681 120.863 102.403 118.68 101.144C116.888 100.091 115.979 98.6041 115.979 96.663C115.979 96.3092 116.014 95.9687 116.095 95.6633C116.628 96.6181 117.856 97.6672 119.796 98.7828C120.621 99.2669 122.691 100.091 126.038 101.238C129.013 102.273 130.856 102.873 131.568 103.049C131.824 102.049 130.887 100.933 128.754 99.6882C127.28 99.1717 125.259 98.3121 122.691 97.1337C121.042 96.1618 120.199 95.3059 120.199 94.5478C120.199 93.9334 120.764 93.2705 121.88 92.5583C124.533 90.8427 127.298 90.0038 130.175 90.0038C131.421 90.0038 132.343 90.1654 132.939 90.5059Z" fill="#D3FFE3"/>
<path d="M104.84 173.678C115.268 169.783 126.068 165.773 137.224 161.619C137.565 161.503 137.758 161.457 137.822 161.503C137.902 161.569 137.888 161.748 137.758 162.04C137.386 162.959 137.077 163.524 136.835 163.702C136.723 163.833 131.534 165.804 121.281 169.636C110.822 173.533 104.988 175.828 103.773 176.558C103.984 175.684 104.338 174.73 104.84 173.678Z" fill="#D3FFE3"/>
<path d="M95.0323 111.238C94.8813 111.641 94.0361 112.348 92.4984 113.389C90.7567 114.545 89.2303 115.307 87.9259 115.655C87.0923 115.866 84.6314 115.779 80.5376 115.364C79.814 115.28 79.4608 115.215 79.4741 115.18C79.5488 115.128 79.8433 115.022 80.3793 114.858C81.0028 114.662 82.6086 114.415 85.2015 114.08C87.6951 113.759 89.1764 113.507 89.6486 113.333C89.7346 113.284 89.7928 113.238 89.815 113.179C90.0008 112.684 88.2329 111.749 84.5431 110.365C84.5333 110.361 83.813 110.12 82.3847 109.652C81.6969 109.434 81.3841 109.261 81.4284 109.143C81.4639 109.048 81.6199 108.89 81.8947 108.657L84.0417 106.928C84.6753 106.425 85.5214 106.283 86.6063 106.488C86.9956 106.567 87.8538 106.86 89.2035 107.366C93.46 108.963 95.4048 110.245 95.0323 111.238Z" fill="#D3FFE3"/>
<path d="M90.2965 127.47C90.8071 128.095 91.0899 129.328 91.1228 131.196C91.1738 133.053 90.9026 134.287 90.3506 134.924C90.1888 135.08 89.6388 135.292 88.6898 135.535C87.7349 135.805 87.1853 135.883 87.0319 135.794C85.9201 135.022 84.8131 134.219 83.7052 133.416C82.2554 132.492 81.0388 132.016 80.0627 131.962C76.9364 136.889 73.283 141.073 69.0908 144.498C67.8576 145.505 66.4913 146.384 64.9922 147.156C64.4637 147.397 64.1761 147.498 64.0941 147.462C64.0033 147.35 64.6822 146.686 66.1412 145.494C68.5587 143.519 71.1673 140.773 74.0027 137.283C76.836 133.797 78.4994 131.849 79.0133 131.429C80.6937 130.056 82.3326 129.516 83.8889 129.821C84.6546 129.971 85.7294 130.535 87.1445 131.487C87.2378 130.552 87.0889 129.853 86.6945 129.37C86.4984 129.13 85.9665 129.032 85.0808 129.061C84.1987 129.086 83.7286 129.071 83.6778 129.009C83.5979 128.911 83.7983 128.696 84.286 128.349C87.2272 126.456 89.2237 126.157 90.2965 127.47Z" fill="#D3FFE3"/>
<path d="M241.61 120.437C241.61 122.234 240.866 124.269 239.396 126.55C237.892 128.942 235.937 130.98 233.558 132.661C232.607 133.325 232.057 133.662 231.877 133.662C231.846 133.662 231.829 133.63 231.829 133.598C231.829 133.468 232.236 132.953 233.025 132.079C236.955 127.795 238.926 124.932 238.926 123.493C238.926 122.118 238.298 121.441 237.021 121.441C236.323 121.441 235.694 121.634 235.127 122.024C234.709 122.297 234.45 122.458 234.351 122.49C234.27 122.427 234.19 122.377 234.078 122.346C234.126 122.199 234.19 121.827 234.288 121.23C234.934 118.287 236.403 116.817 238.716 116.817C240.642 116.817 241.61 118.013 241.61 120.437Z" fill="#D3FFE3"/>
<path d="M175.903 226.64C177.534 226.64 179.004 227.608 180.299 229.549C181.608 231.49 182.512 234.026 183.046 237.163C183.095 237.489 183.13 237.682 183.13 237.731C183.193 237.825 183.225 237.825 183.257 237.731C183.292 237.682 183.355 237.489 183.484 237.163C183.744 235.289 184.39 232.493 185.407 228.788C186.523 226.121 187.737 224.795 189.046 224.795C189.727 224.795 190.39 225.248 191.067 226.152C191.649 226.946 191.94 227.577 191.94 228.079C191.94 228.465 191.842 228.967 191.632 229.581C191.376 230.391 191.067 230.809 190.712 230.809C190.565 230.809 190.242 230.486 189.74 229.858C189.256 229.226 188.737 228.918 188.203 228.918C187.042 228.918 185.958 231.683 184.973 237.198C184.533 239.605 184.049 241.303 183.517 242.289C183.145 242.97 182.821 243.306 182.562 243.306C182.32 243.306 182.208 243.001 182.208 242.387C182.208 241.416 181.656 239.542 180.541 236.745C179.425 233.945 178.65 232.556 178.179 232.556C177.857 232.556 177.646 232.655 177.566 232.865C177.471 233.058 177.211 233.17 176.776 233.17C176.274 233.17 175.625 232.798 174.818 232.072C174.012 231.342 173.622 230.746 173.622 230.31C173.622 230.114 173.944 229.451 174.625 228.321C175.303 227.188 175.724 226.64 175.903 226.64Z" fill="#D3FFE3"/>
<path d="M235.309 145.24C236.425 145.24 237.54 146.307 238.656 148.457C239.659 150.412 240.368 152.594 240.776 155.022C240.807 155.247 240.839 155.394 240.839 155.425C240.87 155.489 240.901 155.489 240.936 155.425C240.951 155.394 241 155.247 241.08 155.022C241.389 152.935 241.954 150.187 242.797 146.776C243.586 144.868 244.459 143.914 245.414 143.914C245.898 143.914 246.386 144.236 246.87 144.882C247.291 145.451 247.501 145.917 247.501 146.275C247.501 146.548 247.417 146.903 247.273 147.341C247.08 147.938 246.87 148.23 246.61 148.23C246.498 148.23 246.27 148.005 245.915 147.553C245.561 147.113 245.189 146.889 244.818 146.889C244.038 146.889 243.151 149.605 242.164 155.053C241.842 156.783 241.501 157.998 241.113 158.723C240.839 159.208 240.614 159.45 240.417 159.45C240.256 159.45 240.176 159.226 240.176 158.786C240.176 158.061 239.723 156.362 238.818 153.664C237.895 150.882 237.266 149.506 236.958 149.506C236.716 149.506 236.572 149.573 236.506 149.717C236.442 149.864 236.263 149.945 235.941 149.945C235.582 149.945 235.116 149.668 234.533 149.152C233.968 148.619 233.677 148.197 233.677 147.893C233.677 147.745 233.92 147.261 234.386 146.45C234.874 145.644 235.179 145.24 235.309 145.24Z" fill="#D3FFE3"/>
<path d="M239.359 182.623C240.345 182.623 241.267 182.202 242.141 181.346C243.159 180.378 243.675 179.146 243.675 177.676C243.675 176.058 242.756 175.251 240.945 175.251C240.135 175.251 239.426 175.494 238.826 175.996C238.843 175.041 239.507 173.57 240.829 171.564C242.026 169.705 243.222 168.234 244.405 167.15C244.696 166.828 244.777 166.554 244.678 166.311C244.597 166.101 244.405 166.083 244.096 166.263C242.545 167.2 240.896 168.978 239.149 171.564C237.146 174.476 236.159 176.981 236.159 179.097C236.159 181.444 237.226 182.623 239.359 182.623Z" fill="#D3FFE3"/>
<path d="M120.67 230.77C120.67 232.258 120.056 233.956 118.828 235.865C117.569 237.851 115.951 239.548 113.961 240.956C113.168 241.507 112.702 241.798 112.554 241.798C112.523 241.798 112.523 241.781 112.523 241.749C112.523 241.637 112.846 241.198 113.527 240.472C116.79 236.9 118.438 234.521 118.438 233.31C118.438 232.177 117.905 231.613 116.856 231.613C116.273 231.613 115.741 231.774 115.27 232.097C114.93 232.324 114.705 232.451 114.624 232.486C114.558 232.419 114.495 232.388 114.396 232.357C114.431 232.241 114.495 231.935 114.575 231.433C115.108 228.978 116.323 227.746 118.263 227.746C119.863 227.746 120.67 228.749 120.67 230.77Z" fill="#D3FFE3"/>
<path d="M205.047 215.452V215.441C207.845 215.441 210.561 214.357 213.197 212.191C213.954 211.542 214.344 209.216 214.344 205.174C214.344 202.714 213.036 183.444 210.432 147.373C207.83 111.287 206.534 91.7221 206.534 88.6847C206.534 85.8716 206.036 83.5585 205.047 81.7478C205.047 80.7001 205.87 78.2706 207.536 74.4745C207.715 74.0045 207.892 73.776 208.071 73.776C208.25 73.776 208.459 74.0045 208.703 74.4745C209.168 75.5243 210.27 78.2706 212.001 82.72C213.794 87.3892 214.859 90.2843 215.217 91.4009C215.396 92.2244 215.491 92.8388 215.491 93.2419C215.491 94.5224 214.245 93.7441 211.79 90.8663C211.499 90.4632 211.354 90.6421 211.354 91.4009C211.354 91.5798 212.583 108.67 215.038 142.667C217.498 176.684 218.727 195.15 218.727 198.077C218.727 206.545 217.207 213.223 214.165 218.076C211.578 222.167 208.541 224.219 205.047 224.219V224.204L205.032 224.219C201.783 224.219 198.467 222.794 195.072 219.949C193.261 218.429 191.839 216.797 190.819 215.036L181.183 219.123L181.153 219.108V219.11C176.658 221.033 173.293 222.538 171.079 223.588C166.697 225.627 163.677 227.289 162.041 228.582C159.033 230.928 154.668 235.407 148.93 242.004C145.519 245.946 142.075 247.936 138.632 247.936C135.737 247.936 133.215 246.628 131.048 244.026C128.77 241.31 127.636 237.994 127.636 234.064C127.636 228.664 129.852 221.615 134.299 212.936C134.765 212.027 135.123 211.574 135.383 211.574C135.508 211.608 135.558 211.721 135.558 211.915C135.558 212.805 134.605 215.825 132.663 221.02C130.74 226.209 129.787 230.313 129.787 233.321C129.787 235.631 130.32 237.475 131.404 238.85C132.538 240.337 134.137 241.098 136.172 241.098C139.779 241.098 143.418 239.253 147.102 235.601C149.43 232.818 151.775 230.053 154.103 227.274C157.143 223.846 161.135 220.792 166.083 218.106C168.978 216.521 174.005 214.225 181.153 211.218V211.244L181.183 211.218L188.314 208.194C187.297 205.398 186.794 202.539 186.794 199.644C186.794 195.262 187.441 191.735 188.735 189.069C190.043 186.417 191.759 185.094 193.893 185.094C195.784 185.094 197.562 186.663 199.228 189.832C200.714 192.628 201.475 195.182 201.475 197.463C201.475 203.247 199.776 208.002 196.383 211.703C198.791 214.195 201.669 215.441 205.032 215.441L205.047 215.452ZM199.243 201.227C199.243 200.259 198.485 198.771 196.997 196.749C195.363 194.581 193.941 193.514 192.744 193.514C191.839 193.514 190.948 194.065 190.075 195.182C189.204 196.279 188.767 197.331 188.767 198.332C188.767 199.174 189.237 200.662 190.205 202.764C191.03 204.605 191.662 205.851 192.13 206.482C193.358 205.9 194.766 205.077 196.348 203.992C198.273 202.701 199.243 201.779 199.243 201.227Z" fill="#D3FFE3"/>
<path d="M165.224 244.837C165.287 244.703 165.339 244.614 165.403 244.58C165.437 244.536 165.464 244.543 165.481 244.607C165.508 244.658 165.508 244.756 165.481 244.889C165.349 245.986 165.04 246.966 164.553 247.823C164.058 248.69 163.528 249.122 162.953 249.122C162.326 249.141 161.84 248.813 161.512 248.142C161.186 247.471 161.044 246.569 161.088 245.437C161.142 244.041 161.681 241.981 162.698 239.276C163.58 236.899 164.341 235.219 164.995 234.219C165.287 233.779 165.471 233.548 165.569 233.531C165.587 233.602 165.508 233.867 165.314 234.3C163.871 237.51 162.945 240.099 162.519 242.069C162.343 242.855 162.264 243.573 162.264 244.2C162.264 245.084 162.423 245.746 162.749 246.189C162.997 246.552 163.254 246.701 163.528 246.648C164.085 246.533 164.65 245.932 165.224 244.837Z" fill="#D3FFE3"/>
<path d="M300 151.745C295.342 151.745 290.916 155.49 286.75 162.94C281.182 172.863 276.072 179.599 271.341 183.155C272.178 183.228 273.312 183.459 274.708 183.796C282.89 187.015 286.94 192.806 286.94 201.251C286.94 203.369 286.561 205.448 285.806 207.492C282.816 215.781 276.909 219.945 268.162 219.945C266.118 219.945 264.08 219.608 262.108 218.885C260.409 218.277 258.815 217.407 257.377 216.24C257.797 218.433 257.984 220.626 257.984 222.788C257.984 227.174 257.114 232.553 255.291 238.912C253.476 245.302 252.572 249.548 252.572 251.667C252.572 254.805 253.665 257.458 255.867 259.578C253.747 257.458 251.093 256.399 247.956 256.399C245.754 256.399 241.402 257.303 234.896 259.118C228.423 260.901 223.009 261.811 218.698 261.811C217.333 261.811 216.004 261.771 214.682 261.622C214.837 262.223 215.1 262.642 215.51 262.871C216.686 265.327 217.251 267.899 217.251 270.666C217.251 278.461 213.662 284.063 206.466 287.505C203.928 288.721 201.285 289.328 198.482 289.328C190.531 289.328 184.971 285.764 181.75 278.65C181.413 278.043 180.955 277.138 180.429 275.891C177.061 280.129 170.473 284.976 160.707 290.388C153.438 294.396 149.807 298.709 149.807 303.295C149.807 298.709 146.251 294.396 139.055 290.388C129.256 284.894 122.708 280.055 119.341 275.891C119.259 276.154 118.847 277.099 118.126 278.65C114.905 285.764 109.303 289.328 101.394 289.328C98.6332 289.328 95.9795 288.721 93.3678 287.505C86.2541 284.139 82.6983 278.577 82.6983 270.855C82.6983 268.054 83.306 265.369 84.5551 262.871C84.5551 262.871 84.7443 262.453 85.1628 261.622C83.8738 261.771 82.5511 261.811 81.1464 261.811C76.8673 261.811 71.4526 260.901 64.9803 259.118C58.5499 257.303 54.1951 256.399 52.0019 256.399C48.7825 256.399 46.0972 257.458 43.904 259.578C46.0972 257.458 47.197 254.765 47.197 251.552C47.197 249.508 46.2865 245.302 44.5117 238.912C42.7286 232.553 41.858 227.248 41.858 223.009C41.858 220.668 42.0473 218.433 42.4657 216.24C40.7583 217.522 39.1728 218.433 37.7345 218.885C35.7642 219.608 33.7602 219.945 31.6721 219.945C23.0066 219.945 17.1419 215.781 14.1518 207.492C13.3969 205.448 13.0184 203.329 13.0184 201.135C13.0184 192.733 17.0683 186.942 25.1262 183.796C25.8811 183.647 26.9829 183.459 28.4191 183.155C23.6879 179.599 18.5802 172.863 13.134 162.94C9.00202 155.49 4.61561 151.745 0 151.745C4.61561 151.745 9.00202 148.032 13.134 140.54C18.5802 130.774 23.6879 124.113 28.4191 120.515C27.6642 120.399 26.5645 120.17 25.1262 119.791C17.0683 116.728 13.0184 110.937 13.0184 102.46C13.0184 100.267 13.3969 98.1474 14.1518 96.1035C17.2155 87.8144 23.0802 83.6824 31.6721 83.6824C33.7602 83.6824 35.7642 84.0272 37.7345 84.7106C39.3936 85.3099 40.9475 86.2204 42.4657 87.4695C42.0473 85.2763 41.858 83.0011 41.858 80.6943C41.858 76.3815 42.7286 71.0425 44.5117 64.6837C46.2865 58.327 47.197 54.0478 47.197 51.9282C47.197 48.6332 46.0972 45.9143 43.904 43.7148C46.1708 45.9143 48.9717 47.0077 52.3068 47.0077C54.5 47.0077 58.8128 46.1372 65.2116 44.3961C71.6103 42.655 76.9072 41.7844 81.1464 41.7844C82.5511 41.7844 83.8738 41.858 85.1628 41.9715C84.9651 41.3723 84.7443 40.9959 84.5551 40.8381C83.306 38.2685 82.6983 35.5412 82.6983 32.7403C82.6983 25.0189 86.2541 19.4571 93.3678 16.0821C95.9795 14.8751 98.6753 14.2674 101.476 14.2674C109.345 14.2674 114.905 17.8653 118.126 25.0189C118.471 25.6603 118.847 26.5708 119.341 27.8198C122.708 23.6143 129.256 18.7757 139.055 13.2076C146.251 9.12397 149.807 4.68921 149.807 0C149.807 4.68921 153.438 9.12397 160.707 13.2076C170.473 18.6937 177.061 23.5806 180.429 27.8198C180.766 27.1785 181.184 26.268 181.75 25.0189C184.971 17.8653 190.5 14.2674 198.368 14.2674C201.169 14.2674 203.896 14.8751 206.466 16.0821C213.662 19.5328 217.251 25.1346 217.251 32.9296C217.251 35.6884 216.686 38.3001 215.51 40.8381C215.027 41.0695 214.755 41.4459 214.682 41.9715C216.004 41.858 217.333 41.7844 218.698 41.7844C223.009 41.7844 228.381 42.655 234.822 44.3961C241.252 46.1372 245.532 47.0077 247.651 47.0077C250.904 47.0077 253.665 45.9143 255.867 43.7148C253.665 45.9143 252.572 48.6332 252.572 51.8546C252.572 54.0142 253.476 58.327 255.291 64.7258C257.114 71.1161 257.984 76.4951 257.984 80.8079C257.984 83.0431 257.797 85.2763 257.377 87.4695C258.699 86.2961 260.293 85.3919 262.224 84.7106C264.112 84.0272 266.118 83.6824 268.162 83.6824C276.869 83.6824 282.734 87.8144 285.806 96.1035C286.561 98.1474 286.94 100.227 286.94 102.345C286.94 110.897 282.89 116.728 274.708 119.791C274.258 120.023 273.124 120.252 271.341 120.515C276.072 124.113 281.182 130.774 286.75 140.54C290.916 148.032 295.342 151.745 300 151.745ZM205.143 33.5688C205.406 32.7403 205.564 31.9097 205.564 31.1128C205.564 28.0827 204.159 26.0787 201.358 25.0189C200.528 24.6404 199.657 24.4112 198.787 24.4112C194.737 24.4112 192.724 26.6444 192.724 31.1128C192.724 35.352 194.852 37.4716 199.092 37.4716C202.155 37.4716 204.199 36.1489 205.143 33.5688ZM275.85 101.211C275.85 99.5037 275.242 97.9918 274.026 96.6692C272.779 95.3066 271.341 94.6652 269.714 94.6652C267.941 94.6652 266.387 95.3065 265.098 96.5535C263.775 97.8446 263.128 99.3565 263.128 101.138C263.128 102.839 263.775 104.351 265.024 105.64C266.305 106.929 267.785 107.61 269.484 107.61C273.732 107.61 275.85 105.49 275.85 101.211ZM100.982 24.5269C99.1253 24.5269 97.5334 25.1661 96.2108 26.4572C94.8461 27.7778 94.2069 29.3317 94.2069 31.1885C94.2069 32.017 94.354 32.8139 94.6989 33.5688C95.7166 36.1489 97.7227 37.4716 100.679 37.4716C104.958 37.4716 107.11 35.2784 107.11 30.8836C107.11 26.6444 105.066 24.5269 100.982 24.5269ZM275.431 200.002C274.413 197.422 272.483 196.099 269.6 196.099C267.899 196.099 266.387 196.741 265.098 197.99C263.775 199.279 263.128 200.757 263.128 202.458C263.128 204.199 263.809 205.677 265.14 207C266.463 208.289 268.015 208.93 269.789 208.93C271.457 208.93 272.861 208.289 274.068 206.926C275.242 205.604 275.85 204.084 275.85 202.384C275.85 201.554 275.736 200.757 275.431 200.002ZM265.477 151.745C265.477 119.455 254.273 91.7087 231.832 68.5865C209.12 45.233 181.792 33.5688 149.807 33.5688C117.748 33.5688 90.4597 45.233 67.9704 68.618C45.4895 92.0115 34.2523 119.833 34.2523 152.155C34.2523 184.559 45.4895 212.297 67.9704 235.428C90.4597 258.592 117.748 270.058 149.807 269.945C181.826 269.795 209.193 258.1 231.832 234.82C254.273 211.616 265.477 183.909 265.477 151.745ZM30.2359 94.6652C28.5348 94.6652 27.0565 95.3066 25.776 96.6692C24.5269 97.9918 23.8771 99.5437 23.8771 101.327C23.8771 103.028 24.5269 104.506 25.8495 105.753C27.1301 106.962 28.682 107.61 30.4652 107.61C31.2958 107.61 32.0591 107.454 32.814 107.191C35.4277 105.942 36.7083 103.899 36.7083 101.022C36.7083 96.7848 34.555 94.6652 30.2359 94.6652ZM205.143 270.027C203.97 267.52 201.893 266.24 198.902 266.24C194.77 266.24 192.724 268.284 192.724 272.407C192.724 273.278 192.88 274.224 193.219 275.168C194.276 277.78 196.175 279.069 198.976 279.069C199.804 279.069 200.601 278.955 201.358 278.65C204.159 277.633 205.564 275.587 205.564 272.523C205.564 271.686 205.406 270.855 205.143 270.027ZM106.733 275.168C107.078 274.298 107.225 273.427 107.225 272.596C107.225 268.359 105.106 266.24 100.868 266.24C97.8047 266.24 95.7166 267.52 94.6989 270.027C94.354 270.855 94.2069 271.686 94.2069 272.523C94.2069 276.876 96.4 279.069 100.753 279.069C103.783 279.069 105.747 277.78 106.733 275.168ZM36.7083 202.458C36.7083 199.542 35.4277 197.538 32.814 196.52C32.017 196.173 31.1885 195.986 30.3495 195.986C26.0388 195.986 23.8771 198.103 23.8771 202.269C23.8771 204.052 24.5269 205.604 25.7339 206.926C26.9829 208.289 28.4612 208.93 30.1624 208.93C34.5151 208.93 36.7083 206.777 36.7083 202.458ZM260.672 151.745C260.672 182.547 249.844 209.046 228.192 231.222C206.542 253.409 180.429 264.646 149.807 264.909C119.226 265.18 93.105 254.123 71.4211 231.756C49.8423 209.578 39.0992 183.007 39.0992 152.04C39.0992 121.196 49.8423 94.5832 71.4211 72.2579C93.1786 49.693 119.299 38.4894 149.807 38.6786C180.429 38.9078 206.542 50.1135 228.192 72.3315C249.844 94.5496 260.672 121.007 260.672 151.745ZM250.831 151.745C250.831 123.389 241.063 99.1252 221.572 78.9511C201.85 58.5562 177.931 48.2967 149.807 48.1411C121.755 47.9939 97.8783 58.2849 78.0827 79.0331C58.5899 99.4301 48.8246 123.768 48.8246 152.04C48.8246 180.543 58.5899 204.88 78.0827 225.055C97.8047 245.458 121.682 255.602 149.807 255.446C177.931 255.339 201.85 245.039 221.572 224.645C241.063 204.388 250.831 180.091 250.831 151.745Z" fill="#D3FFE3"/>
</svg>
